<svg width="32" height="32" viewBox="0 0 32 32" fill="none" xmlns="http://www.w3.org/2000/svg">
<path d="M24 2.66667C26.9413 2.66667 29.3333 5.05867 29.3333 8V24C29.3333 26.9413 26.9413 29.3333 24 29.3333H8C5.05867 29.3333 2.66667 26.9413 2.66667 24V8C2.66667 5.05867 5.05867 2.66667 8 2.66667H24ZM24 0H8C5.87827 0 3.84344 0.842855 2.34315 2.34315C0.842855 3.84344 0 5.87827 0 8L0 24C0 26.1217 0.842855 28.1566 2.34315 29.6569C3.84344 31.1571 5.87827 32 8 32H24C26.1217 32 28.1566 31.1571 29.6569 29.6569C31.1571 28.1566 32 26.1217 32 24V8C32 5.87827 31.1571 3.84344 29.6569 2.34315C28.1566 0.842855 26.1217 0 24 0Z" fill="#00ccc5"/>
<path d="M16 24C15.6464 24 15.3072 23.8595 15.0572 23.6095C14.8071 23.3594 14.6667 23.0203 14.6667 22.6667V9.33333C14.6667 8.97971 14.8071 8.64057 15.0572 8.39052C15.3072 8.14048 15.6464 8 16 8C16.3536 8 16.6928 8.14048 16.9428 8.39052C17.1928 8.64057 17.3333 8.97971 17.3333 9.33333V22.6667C17.3333 23.0203 17.1928 23.3594 16.9428 23.6095C16.6928 23.8595 16.3536 24 16 24Z" fill="#00ccc5"/>
<path d="M8 16C8 15.6464 8.14048 15.3072 8.39052 15.0572C8.64057 14.8071 8.97971 14.6667 9.33333 14.6667H22.6667C23.0203 14.6667 23.3594 14.8071 23.6095 15.0572C23.8595 15.3072 24 15.6464 24 16C24 16.3536 23.8595 16.6928 23.6095 16.9428C23.3594 17.1928 23.0203 17.3333 22.6667 17.3333H9.33333C8.97971 17.3333 8.64057 17.1928 8.39052 16.9428C8.14048 16.6928 8 16.3536 8 16Z" fill="#00ccc5"/>
</svg>
